<?xml version="1.0" encoding="UTF-8" standalone="no"?>
<svg
   xmlns:dc="http://purl.org/dc/elements/1.1/"
   xmlns:cc="http://creativecommons.org/ns#"
   xmlns:rdf="http://www.w3.org/1999/02/22-rdf-syntax-ns#"
   xmlns:svg="http://www.w3.org/2000/svg"
   xmlns="http://www.w3.org/2000/svg"
   viewBox="0 0 504 523.84003"
   height="523.84003"
   width="504"
   xml:space="preserve"
   id="svg2"
   version="1.1"><metadata
     id="metadata8"><rdf:RDF><cc:Work
         rdf:about=""><dc:format>image/svg+xml</dc:format><dc:type
           rdf:resource="http://purl.org/dc/dcmitype/StillImage" /></cc:Work></rdf:RDF></metadata><defs
     id="defs6"><clipPath
       id="clipPath18"
       clipPathUnits="userSpaceOnUse"><path
         style="clip-rule:evenodd"
         id="path16"
         d="M 0,0 H 1575 V 1637.5 H 0 Z" /></clipPath><clipPath
       id="clipPath30"
       clipPathUnits="userSpaceOnUse"><path
         style="clip-rule:evenodd"
         id="path28"
         d="M 0,0 H 1575 V 1637.5 H 0 Z" /></clipPath><clipPath
       id="clipPath42"
       clipPathUnits="userSpaceOnUse"><path
         style="clip-rule:evenodd"
         id="path40"
         d="M 467.48553,754.65625 H 964.46594 V 1077.418 H 467.48553 Z" /></clipPath><clipPath
       id="clipPath56"
       clipPathUnits="userSpaceOnUse"><path
         style="clip-rule:evenodd"
         id="path54"
         d="M 0,0 H 1575 V 1637.5 H 0 Z" /></clipPath><clipPath
       id="clipPath76"
       clipPathUnits="userSpaceOnUse"><path
         id="path74"
         d="M 0,0 H 1575 V 1637.5 H 0 Z" /></clipPath><clipPath
       id="clipPath82"
       clipPathUnits="userSpaceOnUse"><path
         id="path80"
         d="M 0,0 H 1575 V 1640.625 H 0 Z" /></clipPath><clipPath
       id="clipPath88"
       clipPathUnits="userSpaceOnUse"><path
         id="path86"
         d="M 962.55536,610.96008 H 1931.4617 V 1618.1943 H 962.55536 Z" /></clipPath><clipPath
       id="clipPath94"
       clipPathUnits="userSpaceOnUse"><path
         style="clip-rule:evenodd"
         id="path92"
         d="m 1059.9871,915.9491 133.4465,-212.40802 35.6705,22.41156 -133.4466,212.40808 M 962.55536,610.96008 H 1929.5852 V 1618.1943 H 962.55536" /></clipPath><clipPath
       id="clipPath106"
       clipPathUnits="userSpaceOnUse"><path
         style="clip-rule:evenodd"
         id="path104"
         d="M 0,0 H 1575 V 1637.5 H 0 Z" /></clipPath><clipPath
       id="clipPath124"
       clipPathUnits="userSpaceOnUse"><path
         style="clip-rule:evenodd"
         id="path122"
         d="M 59.185665,86.9375 H 635.85833 V 612.89331 H 59.185665 Z" /></clipPath><clipPath
       id="clipPath138"
       clipPathUnits="userSpaceOnUse"><path
         style="clip-rule:evenodd"
         id="path136"
         d="M 0,0 H 1575 V 1637.5 H 0 Z" /></clipPath><clipPath
       id="clipPath152"
       clipPathUnits="userSpaceOnUse"><path
         style="clip-rule:evenodd"
         id="path150"
         d="M 910.19049,86.9375 H 1486.8632 V 612.89331 H 910.19049 Z" /></clipPath><clipPath
       id="clipPath166"
       clipPathUnits="userSpaceOnUse"><path
         style="clip-rule:evenodd"
         id="path164"
         d="M 0,0 H 1575 V 1637.5 H 0 Z" /></clipPath><clipPath
       id="clipPath180"
       clipPathUnits="userSpaceOnUse"><path
         id="path178"
         d="M 0,0 H 1575 V 1637.5 H 0 Z" /></clipPath><clipPath
       id="clipPath186"
       clipPathUnits="userSpaceOnUse"><path
         id="path184"
         d="M 0,0 H 1575 V 1640.625 H 0 Z" /></clipPath><clipPath
       id="clipPath192"
       clipPathUnits="userSpaceOnUse"><path
         id="path190"
         d="M 633.94043,347.99136 H 1602.8467 V 1355.2256 H 633.94043 Z" /></clipPath><clipPath
       id="clipPath198"
       clipPathUnits="userSpaceOnUse"><path
         style="clip-rule:evenodd"
         id="path196"
         d="m 715.0871,347.99136 h 114.89007 v 21.06382 H 715.0871 M 633.94043,347.99136 H 1600.9702 V 1355.2256 H 633.94043" /></clipPath><clipPath
       id="clipPath210"
       clipPathUnits="userSpaceOnUse"><path
         style="clip-rule:evenodd"
         id="path208"
         d="M 0,0 H 1575 V 1637.5 H 0 Z" /></clipPath><clipPath
       id="clipPath228"
       clipPathUnits="userSpaceOnUse"><path
         style="clip-rule:evenodd"
         id="path226"
         d="m 467.48553,1303.9375 h 466.93378 v 279.4578 H 467.48553 Z" /></clipPath><clipPath
       id="clipPath242"
       clipPathUnits="userSpaceOnUse"><path
         style="clip-rule:evenodd"
         id="path240"
         d="M 0,0 H 1575 V 1637.5 H 0 Z" /></clipPath><clipPath
       id="clipPath256"
       clipPathUnits="userSpaceOnUse"><path
         id="path254"
         d="M 0,0 H 1575 V 1637.5 H 0 Z" /></clipPath><clipPath
       id="clipPath262"
       clipPathUnits="userSpaceOnUse"><path
         id="path260"
         d="M 0,0 H 1575 V 1640.625 H 0 Z" /></clipPath><clipPath
       id="clipPath268"
       clipPathUnits="userSpaceOnUse"><path
         id="path266"
         d="M 342.47208,609.04523 H 1313.2933 V 1618.1943 H 342.47208 Z" /></clipPath><clipPath
       id="clipPath274"
       clipPathUnits="userSpaceOnUse"><path
         style="clip-rule:evenodd"
         id="path272"
         d="m 342.47208,775.63354 h 33.95208 v 42.12769 h -33.95208 m 0,-208.716 H 1311.4168 V 1618.1943 H 342.47208" /></clipPath><clipPath
       id="clipPath286"
       clipPathUnits="userSpaceOnUse"><path
         style="clip-rule:evenodd"
         id="path284"
         d="M 0,0 H 1575 V 1637.5 H 0 Z" /></clipPath><clipPath
       id="clipPath308"
       clipPathUnits="userSpaceOnUse"><path
         id="path306"
         d="M 0,0 H 1575 V 1637.5 H 0 Z" /></clipPath><clipPath
       id="clipPath314"
       clipPathUnits="userSpaceOnUse"><path
         id="path312"
         d="M 0,0 H 1575 V 1640.625 H 0 Z" /></clipPath><clipPath
       id="clipPath320"
       clipPathUnits="userSpaceOnUse"><path
         id="path318"
         d="M 712.14813,1073.5764 H 1682.9692 V 2082.7256 H 712.14813 Z" /></clipPath><clipPath
       id="clipPath326"
       clipPathUnits="userSpaceOnUse"><path
         style="clip-rule:evenodd"
         id="path324"
         d="m 712.14813,1147.874 h 125.01154 v 42.1277 H 712.14813 m 0,-116.4253 H 1681.0928 V 2082.7256 H 712.14813" /></clipPath><clipPath
       id="clipPath338"
       clipPathUnits="userSpaceOnUse"><path
         style="clip-rule:evenodd"
         id="path336"
         d="M 0,0 H 1575 V 1637.5 H 0 Z" /></clipPath><clipPath
       id="clipPath360"
       clipPathUnits="userSpaceOnUse"><path
         style="clip-rule:evenodd"
         id="path358"
         d="m 676.479,1303.9375 h 257.9248 v 168.6157 H 676.479 Z" /></clipPath><clipPath
       id="clipPath374"
       clipPathUnits="userSpaceOnUse"><path
         style="clip-rule:evenodd"
         id="path372"
         d="M 0,0 H 1575 V 1637.5 H 0 Z" /></clipPath></defs><g
     transform="matrix(0.31999998,0,0,0.31999998,0,1.3096e-5)"
     id="g10"><g
       id="g12"><g
         clip-path="url(#clipPath18)"
         id="g14"><g
           transform="scale(3.125)"
           id="g20"><path
             id="path22"
             style="fill:#ffffff;fill-opacity:1;fill-rule:nonzero;stroke:none"
             d="M 0,0 H 504 V 525 H 0 Z" /></g></g></g><g
       id="g24"><g
         clip-path="url(#clipPath30)"
         id="g26"><g
           transform="scale(3.1249032,3.125)"
           id="g32"><path
             id="path34"
             style="fill:#f2f2f2;fill-opacity:1;fill-rule:nonzero;stroke:none"
             d="M 0,0 H 504.01563 V 525 H 0 Z" /></g></g></g><g
       id="g36"><g
         clip-path="url(#clipPath42)"
         id="g38"><g
           transform="matrix(1.9148346,0,0,1.914894,467.48553,754.65625)"
           id="g44"><path
             id="path46"
             style="fill:#2d9bf0;fill-opacity:0.4;fill-rule:nonzero;stroke:none"
             d="M 0,0 H 259.54221 V 168.55328 H 0 Z" /><path
             id="path48"
             style="fill:none;stroke:#1a1a1a;stroke-width:1;stroke-linecap:butt;stroke-linejoin:miter;stroke-miterlimit:10;stroke-dasharray:none;stroke-opacity:1"
             d="M 0,0 H 259.54221 V 168.55328 H 0 Z" /></g></g></g><g
       id="g50"><g
         clip-path="url(#clipPath56)"
         id="g52"><g
           transform="matrix(1.9147948,0,0,1.914894,483.62689,770.79437)"
           id="g58"><text
             id="text62"
             style="font-variant:normal;font-weight:normal;font-size:14px;font-family:OpenSans;-inkscape-font-specification:OpenSans-Regular;writing-mode:lr-tb;fill:#1a1a1a;fill-opacity:1;fill-rule:nonzero;stroke:none"
             transform="translate(94.7351,69.848976)"><tspan
               id="tspan60"
               y="0"
               x="0 7.8544922 15.189453 23.043945 27.548828 27.548828 36.141602 44.734375 48.275391">exe- unit</tspan></text>
</g><g
           transform="matrix(1.9153022,0,0,1.914894,483.58466,770.79437)"
           id="g64"><text
             id="text68"
             style="font-variant:normal;font-weight:normal;font-size:14px;font-family:OpenSans;-inkscape-font-specification:OpenSans-Regular;writing-mode:lr-tb;fill:#1a1a1a;fill-opacity:1;fill-rule:nonzero;stroke:none"
             transform="translate(82.276764,89.848976)"><tspan
               id="tspan66"
               y="0"
               x="0 4.1425781 11.826172 20.418945 28.998047 36.852539 42.567383 49.581055 53.12207 59.800781 68.256836 73.97168">(Supervisor)</tspan></text>
</g></g></g><g
       id="g70"><g
         clip-path="url(#clipPath76)"
         id="g72"><g
           clip-path="url(#clipPath82)"
           id="g78"><g
             clip-path="url(#clipPath88)"
             id="g84"><g
               clip-path="url(#clipPath94)"
               id="g90"><g
                 transform="matrix(1.9148346,0,0,1.914894,964.47021,612.875)"
                 id="g96"><path
                   id="path98"
                   style="fill:none;stroke:#000000;stroke-width:1;stroke-linecap:butt;stroke-linejoin:miter;stroke-miterlimit:10;stroke-dasharray:none;stroke-opacity:1"
                   d="m 12.8,158.30568 c 76.717654,0 109.43927,-80.788026 109.43927,-157.50567999" /></g></g></g></g></g></g><g
       id="g100"><g
         clip-path="url(#clipPath106)"
         id="g102"><g
           transform="matrix(-1.9148346,0,0,-1.914894,964.47021,916.01361)"
           id="g108"><path
             id="path110"
             style="fill:#000000;fill-opacity:1;fill-rule:nonzero;stroke:none"
             d="M -16,-4 0,0 -16,4 Z" /></g><g
           transform="matrix(1.0187213,-1.6215069,1.6213853,1.018708,1063.8167,919.77893)"
           id="g112"><text
             id="text116"
             style="font-variant:normal;font-weight:normal;font-size:14px;font-family:OpenSans;-inkscape-font-specification:OpenSans-Regular;writing-mode:lr-tb;fill:#000000;fill-opacity:1;fill-rule:nonzero;stroke:none"
             transform="translate(0.39999855,14)"><tspan
               id="tspan114"
               y="0"
               x="0 8.5791016 14.293945 22.75 29.415039 37.269531 43.948242 50.626953 54.263672 59.007812 67.463867 73.178711 80.527344 85.667969 92.34668 100.92578 108.71191 119.60156">process fork/spawn</tspan></text>
</g></g></g><g
       id="g118"><g
         clip-path="url(#clipPath124)"
         id="g120"><g
           transform="matrix(1.9148346,0,0,1.914894,59.185665,86.9375)"
           id="g126"><path
             id="path128"
             style="fill:#e6e6e6;fill-opacity:1;fill-rule:nonzero;stroke:none"
             d="M 0,0 H 301.16055 V 274.66577 H 0 Z" /><path
             id="path130"
             style="fill:none;stroke:#1a1a1a;stroke-width:1;stroke-linecap:butt;stroke-linejoin:miter;stroke-miterlimit:10;stroke-dasharray:none;stroke-opacity:1"
             d="M 0,0 H 301.16055 V 274.66577 H 0 Z" /></g></g></g><g
       id="g132"><g
         clip-path="url(#clipPath138)"
         id="g134"><g
           transform="matrix(1.9143809,0,0,1.914894,85.482643,113.2353)"
           id="g140"><text
             id="text144"
             style="font-variant:normal;font-weight:normal;font-size:12px;font-family:OpenSans;-inkscape-font-specification:OpenSans-Regular;writing-mode:lr-tb;fill:#1a1a1a;fill-opacity:1;fill-rule:nonzero;stroke:none"
             transform="translate(0,12)"><tspan
               id="tspan142"
               y="0"
               x="0 6.046875 12.720703 19.294922 26.660156 33.333984 36.451172 43.804688 50.478516 57.210938 68.373047 75.621094">yagna daemon</tspan></text>
</g></g></g><g
       id="g146"><g
         clip-path="url(#clipPath152)"
         id="g148"><g
           transform="matrix(1.9148346,0,0,1.914894,910.19049,86.9375)"
           id="g154"><path
             id="path156"
             style="fill:#e6e6e6;fill-opacity:1;fill-rule:nonzero;stroke:none"
             d="M 0,0 H 301.16055 V 274.66577 H 0 Z" /><path
             id="path158"
             style="fill:none;stroke:#1a1a1a;stroke-width:1;stroke-linecap:butt;stroke-linejoin:miter;stroke-miterlimit:10;stroke-dasharray:none;stroke-opacity:1"
             d="M 0,0 H 301.16055 V 274.66577 H 0 Z" /></g></g></g><g
       id="g160"><g
         clip-path="url(#clipPath166)"
         id="g162"><g
           transform="matrix(1.9149357,0,0,1.914894,936.48749,113.2353)"
           id="g168"><text
             id="text172"
             style="font-variant:normal;font-weight:normal;font-size:12px;font-family:OpenSans;-inkscape-font-specification:OpenSans-Regular;writing-mode:lr-tb;fill:#1a1a1a;fill-opacity:1;fill-rule:nonzero;stroke:none"
             transform="translate(0,12)"><tspan
               id="tspan170"
               y="0"
               x="0 6.046875 12.720703 16.582031 16.582031 23.935547 28.833984 36.082031 42.09375 45.128906 52.482422 59.214844">ya- provider</tspan></text>
</g></g></g><g
       id="g174"><g
         clip-path="url(#clipPath180)"
         id="g176"><g
           clip-path="url(#clipPath186)"
           id="g182"><g
             clip-path="url(#clipPath192)"
             id="g188"><g
               clip-path="url(#clipPath198)"
               id="g194"><g
                 transform="matrix(1.9148346,0,0,1.914894,635.85529,349.90625)"
                 id="g200"><path
                   id="path202"
                   style="fill:none;stroke:#000000;stroke-width:1;stroke-linecap:butt;stroke-linejoin:miter;stroke-miterlimit:10;stroke-dasharray:none;stroke-opacity:1"
                   d="M 142.46837,0 C 90.601021,0 64.667343,0 12.8,0" /></g></g></g></g></g></g><g
       id="g204"><g
         clip-path="url(#clipPath210)"
         id="g206"><g
           transform="matrix(-1.9148346,0,0,-1.914894,635.85529,349.90625)"
           id="g212"><path
             id="path214"
             style="fill:#000000;fill-opacity:1;fill-rule:nonzero;stroke:none"
             d="M -16,-4 0,0 -16,4 Z" /></g><g
           transform="matrix(1.9149271,0,0,1.914894,718.91669,330.75729)"
           id="g216"><text
             id="text220"
             style="font-variant:normal;font-weight:normal;font-size:14px;font-family:OpenSans;-inkscape-font-specification:OpenSans-Regular;writing-mode:lr-tb;fill:#000000;fill-opacity:1;fill-rule:nonzero;stroke:none"
             transform="translate(0.6499995,14)"><tspan
               id="tspan218"
               y="0"
               x="0 8.6542969 16.44043 24.124023 31.869141 35.505859 44.365234 52.793945">REST API</tspan></text>
</g></g></g><g
       id="g222"><g
         clip-path="url(#clipPath228)"
         id="g224"><g
           transform="matrix(1.9148346,0,0,1.914894,467.48553,1303.9375)"
           id="g230"><path
             id="path232"
             style="fill:#fff9b1;fill-opacity:1;fill-rule:nonzero;stroke:none"
             d="M 0,0 H 243.85071 V 145.93904 H 0 Z" /><path
             id="path234"
             style="fill:none;stroke:#1a1a1a;stroke-width:1;stroke-linecap:butt;stroke-linejoin:miter;stroke-miterlimit:10;stroke-dasharray:none;stroke-opacity:1"
             d="M 0,0 H 243.85071 V 145.93904 H 0 Z" /></g></g></g><g
       id="g236"><g
         clip-path="url(#clipPath242)"
         id="g238"><g
           transform="matrix(1.9145852,0,0,1.914894,481.45801,1317.9104)"
           id="g244"><text
             id="text248"
             style="font-variant:normal;font-weight:normal;font-size:12px;font-family:OpenSans;-inkscape-font-specification:OpenSans-Regular;writing-mode:lr-tb;fill:#1a1a1a;fill-opacity:1;fill-rule:nonzero;stroke:none"
             transform="translate(0,12)"><tspan
               id="tspan246"
               y="0"
               x="0 6.6738281 12.960938 19.693359 28.429688 35.794922 38.830078 43.066406 46.183594 51.082031 58.447266 65.8125 70.048828 73.083984 84.246094">ExeUnit runtime</tspan></text>
</g></g></g><g
       id="g250"><g
         clip-path="url(#clipPath256)"
         id="g252"><g
           clip-path="url(#clipPath262)"
           id="g258"><g
             clip-path="url(#clipPath268)"
             id="g264"><g
               clip-path="url(#clipPath274)"
               id="g270"><g
                 transform="matrix(1.9148346,0,0,1.914894,346.30176,612.875)"
                 id="g276"><path
                   id="path278"
                   style="fill:none;stroke:#333333;stroke-width:1;stroke-linecap:butt;stroke-linejoin:miter;stroke-miterlimit:10;stroke-dasharray:none;stroke-opacity:1"
                   d="m 0.6414299,10.181818 c 0,62.856436 -10.3907948,148.123862 52.4656371,148.123862" /></g></g></g></g></g></g><g
       id="g280"><g
         clip-path="url(#clipPath286)"
         id="g282"><g
           transform="matrix(0,-1.914894,1.9148346,0,347.53,612.875)"
           id="g288"><path
             id="path290"
             style="fill:#333333;fill-opacity:1;fill-rule:nonzero;stroke:none"
             d="M -12.727273,-7.5454545 0,0 -12.727273,7.5454545 Z" /></g><g
           transform="matrix(1.9148346,0,0,1.914894,467.48953,916.01361)"
           id="g292"><path
             id="path294"
             style="fill:#333333;fill-opacity:1;fill-rule:nonzero;stroke:none"
             d="M -12.727273,-7.5454545 0,0 -12.727273,7.5454545 Z" /></g><g
           transform="matrix(1.9150289,0,0,1.914894,322.80872,779.46332)"
           id="g296"><text
             id="text300"
             style="font-variant:normal;font-weight:normal;font-size:14px;font-family:OpenSans;-inkscape-font-specification:OpenSans-Regular;writing-mode:lr-tb;fill:#333333;fill-opacity:1;fill-rule:nonzero;stroke:none"
             transform="translate(0.52499962,14)"><tspan
               id="tspan298"
               y="0"
               x="0 10.192383 17.875977">GSB</tspan></text>
</g></g></g><g
       id="g302"><g
         clip-path="url(#clipPath308)"
         id="g304"><g
           clip-path="url(#clipPath314)"
           id="g310"><g
             clip-path="url(#clipPath320)"
             id="g316"><g
               clip-path="url(#clipPath326)"
               id="g322"><g
                 transform="matrix(1.9148346,0,0,1.914894,715.97778,1077.4063)"
                 id="g328"><path
                   id="path330"
                   style="fill:none;stroke:#333333;stroke-width:1;stroke-linecap:butt;stroke-linejoin:miter;stroke-miterlimit:10;stroke-dasharray:none;stroke-opacity:1"
                   d="m 0,10.181818 c 0,43.405981 46.730495,54.53153 46.730495,97.937502" /></g></g></g></g></g></g><g
       id="g332"><g
         clip-path="url(#clipPath338)"
         id="g334"><g
           transform="matrix(0,-1.914894,1.9148346,0,715.97778,1077.4063)"
           id="g340"><path
             id="path342"
             style="fill:#333333;fill-opacity:1;fill-rule:nonzero;stroke:none"
             d="M -12.727273,-7.5454545 0,0 -12.727273,7.5454545 Z" /></g><g
           transform="matrix(0,1.914894,-1.9148346,0,805.45892,1303.9404)"
           id="g344"><path
             id="path346"
             style="fill:#333333;fill-opacity:1;fill-rule:nonzero;stroke:none"
             d="M -12.727273,-7.5454545 0,0 -12.727273,7.5454545 Z" /></g><g
           transform="matrix(1.9144841,0,0,1.914894,651.4209,1151.7037)"
           id="g348"><text
             id="text352"
             style="font-variant:normal;font-weight:normal;font-size:14px;font-family:OpenSans;-inkscape-font-specification:OpenSans-Regular;writing-mode:lr-tb;fill:#333333;fill-opacity:1;fill-rule:nonzero;stroke:none"
             transform="translate(0.5,14)"><tspan
               id="tspan350"
               y="0"
               x="0 7.0546875 14.84082 19.345703 19.345703 25.060547 33.65332 42.246094 47.188477 50.729492 63.751953 71.606445 76.111328 76.111328 83.897461 92.476562">ya- runtime- api</tspan></text>
</g></g></g><g
       id="g354"><g
         clip-path="url(#clipPath360)"
         id="g356"><g
           transform="matrix(1.9148346,0,0,1.914894,676.479,1303.9375)"
           id="g362"><path
             id="path364"
             style="fill:#fac710;fill-opacity:0.4;fill-rule:nonzero;stroke:none"
             d="M 0,0 H 134.69823 V 88.054893 H 0 Z" /><path
             id="path366"
             style="fill:none;stroke:#1a1a1a;stroke-width:1;stroke-linecap:butt;stroke-linejoin:miter;stroke-miterlimit:10;stroke-dasharray:none;stroke-opacity:1"
             d="M 0,0 H 134.69823 V 88.054893 H 0 Z" /></g></g></g><g
       id="g368"><g
         clip-path="url(#clipPath374)"
         id="g370"><g
           transform="matrix(1.9148132,0,0,1.914894,684.90985,1312.3683)"
           id="g376"><text
             id="text380"
             style="font-variant:normal;font-weight:normal;font-size:14px;font-family:OpenSans;-inkscape-font-specification:OpenSans-Regular;writing-mode:lr-tb;fill:#1a1a1a;fill-opacity:1;fill-rule:nonzero;stroke:none"
             transform="translate(13.588036,43.624702)"><tspan
               id="tspan378"
               y="0"
               x="0 7.0546875 14.84082 19.345703 19.345703 25.060547 33.65332 42.246094 47.188477 50.729492 63.751953 71.606445 76.111328 76.111328 82.790039 91.369141">ya- runtime- sdk</tspan></text>
</g></g></g></g></svg>